<svg width="111" height="39" viewBox="0 0 111 39" fill="none" xmlns="http://www.w3.org/2000/svg">
    <path
        d="M32.7578 6.89844L28.9844 38H18.6953C18.1328 34.2031 17.4844 29.2031 16.75 23C16.5 25.7188 16.1484 28.4688 15.6953 31.25L14.6406 38H4.35156L0.34375 6.89844H8.5C8.5625 7.71094 9.25 13.6406 10.5625 24.6875C10.6562 23.5625 11.3594 17.6328 12.6719 6.89844H20.5234L22.4453 24.6875C22.7422 19.5 23.4609 13.5703 24.6016 6.89844H32.7578ZM55.75 17.8203V25.4375C55.75 28.2344 55.6094 30.2891 55.3281 31.6016C55.0469 32.8984 54.4453 34.1172 53.5234 35.2578C52.6016 36.3828 51.4141 37.2188 49.9609 37.7656C48.5234 38.2969 46.8672 38.5625 44.9922 38.5625C42.8984 38.5625 41.125 38.3359 39.6719 37.8828C38.2188 37.4141 37.0859 36.7188 36.2734 35.7969C35.4766 34.8594 34.9062 33.7344 34.5625 32.4219C34.2188 31.0938 34.0469 29.1094 34.0469 26.4688V18.5C34.0469 15.6094 34.3594 13.3516 34.9844 11.7266C35.6094 10.1016 36.7344 8.79688 38.3594 7.8125C39.9844 6.82812 42.0625 6.33594 44.5938 6.33594C46.7188 6.33594 48.5391 6.65625 50.0547 7.29688C51.5859 7.92188 52.7656 8.74219 53.5938 9.75781C54.4219 10.7734 54.9844 11.8203 55.2812 12.8984C55.5938 13.9766 55.75 15.6172 55.75 17.8203ZM46.2812 15.4766C46.2812 13.8828 46.1953 12.8828 46.0234 12.4766C45.8516 12.0547 45.4844 11.8438 44.9219 11.8438C44.3594 11.8438 43.9844 12.0547 43.7969 12.4766C43.6094 12.8828 43.5156 13.8828 43.5156 15.4766V29.5156C43.5156 30.9844 43.6094 31.9453 43.7969 32.3984C43.9844 32.8359 44.3516 33.0547 44.8984 33.0547C45.4609 33.0547 45.8281 32.8516 46 32.4453C46.1875 32.0391 46.2812 31.1641 46.2812 29.8203V15.4766ZM68.3594 6.89844L67.9844 10.9766C69.3594 8.05469 71.3516 6.50781 73.9609 6.33594V17.2812C72.2266 17.2812 70.9531 17.5156 70.1406 17.9844C69.3281 18.4531 68.8281 19.1094 68.6406 19.9531C68.4531 20.7812 68.3594 22.7031 68.3594 25.7188V38H58.8906V6.89844H68.3594ZM85.8438 0.0546875V38H76.0938V0.0546875H85.8438ZM110.805 0.0546875V38H101.336V35.75C100.43 36.6875 99.4766 37.3906 98.4766 37.8594C97.4766 38.3281 96.4297 38.5625 95.3359 38.5625C93.8672 38.5625 92.5938 38.1797 91.5156 37.4141C90.4375 36.6328 89.7422 35.7344 89.4297 34.7188C89.1328 33.7031 88.9844 32.0469 88.9844 29.75V15.1953C88.9844 12.8047 89.1328 11.1094 89.4297 10.1094C89.7422 9.10938 90.4453 8.23438 91.5391 7.48438C92.6328 6.71875 93.9375 6.33594 95.4531 6.33594C96.625 6.33594 97.6953 6.54688 98.6641 6.96875C99.6484 7.39062 100.539 8.02344 101.336 8.86719V0.0546875H110.805ZM101.336 14.7266C101.336 13.5859 101.234 12.8203 101.031 12.4297C100.844 12.0391 100.461 11.8438 99.8828 11.8438C99.3203 11.8438 98.9375 12.0234 98.7344 12.3828C98.5469 12.7266 98.4531 13.5078 98.4531 14.7266V29.9609C98.4531 31.2266 98.5469 32.0625 98.7344 32.4688C98.9219 32.8594 99.2812 33.0547 99.8125 33.0547C100.422 33.0547 100.828 32.8359 101.031 32.3984C101.234 31.9453 101.336 30.8516 101.336 29.1172V14.7266Z"
        fill="black" />
</svg>
